{
  "accessors": [
    {
      "bufferView": 2,
      "componentType": 5126,
      "count": 65532,
      "max": [
        0.9052222371101379,
        1.5438640117645264,
        0.9516509771347046
      ],
      "min": [
        -0.9052222371101379,
        0.1965712606906891,
        0.4687272310256958
      ],
      "type": "VEC3"
    },
    {
      "bufferView": 2,
      "byteOffset": 786384,
      "componentType": 5126,
      "count": 65532,
      "max": [
        1.0,
        1.0,
        1.0
      ],
      "min": [
        -1.0,
        -1.0,
        -1.0
      ],
      "type": "VEC3"
    },
    {
      "bufferView": 1,
      "componentType": 5126,
      "count": 65532,
      "max": [
        0.9065837860107422,
        0.9952932596206665
      ],
      "min": [
        0.004706859588623047,
        0.004706859588623047
      ],
      "type": "VEC2"
    },
    {
      "bufferView": 1,
      "byteOffset": 524256,
      "componentType": 5126,
      "count": 65532,
      "max": [
        0.9065837860107422,
        0.9952932596206665
      ],
      "min": [
        0.004706859588623047,
        0.004706859588623047
      ],
      "type": "VEC2"
    },
    {
      "bufferView": 1,
      "byteOffset": 1048512,
      "componentType": 5126,
      "count": 65532,
      "max": [
        0.9065837860107422,
        0.9952932596206665
      ],
      "min": [
        0.004706859588623047,
        0.004706859588623047
      ],
      "type": "VEC2"
    },
    {
      "bufferView": 0,
      "componentType": 5125,
      "count": 365157,
      "type": "SCALAR"
    },
    {
      "bufferView": 2,
      "byteOffset": 1572768,
      "componentType": 5126,
      "count": 65532,
      "max": [
        0.9072871208190918,
        1.7125426530838013,
        0.9516509175300598
      ],
      "min": [
        -0.9072871208190918,
        0.0,
        -0.8562713265419006
      ],
      "type": "VEC3"
    },
    {
      "bufferView": 2,
      "byteOffset": 2359152,
      "componentType": 5126,
      "count": 65532,
      "max": [
        1.0,
        1.0,
        1.0
      ],
      "min": [
        -1.0,
        -1.0,
        -1.0
      ],
      "type": "VEC3"
    },
    {
      "bufferView": 1,
      "byteOffset": 1572768,
      "componentType": 5126,
      "count": 65532,
      "max": [
        0.9074390530586243,
        0.993415892124176
      ],
      "min": [
        0.004706859588623047,
        0.004706859588623047
      ],
      "type": "VEC2"
    },
    {
      "bufferView": 1,
      "byteOffset": 2097024,
      "componentType": 5126,
      "count": 65532,
      "max": [
        0.9074390530586243,
        0.993415892124176
      ],
      "min": [
        0.004706859588623047,
        0.004706859588623047
      ],
      "type": "VEC2"
    },
    {
      "bufferView": 1,
      "byteOffset": 2621280,
      "componentType": 5126,
      "count": 65532,
      "max": [
        0.9074390530586243,
        0.993415892124176
      ],
      "min": [
        0.004706859588623047,
        0.004706859588623047
      ],
      "type": "VEC2"
    },
    {
      "bufferView": 0,
      "byteOffset": 1460628,
      "componentType": 5125,
      "count": 364020,
      "type": "SCALAR"
    },
    {
      "bufferView": 2,
      "byteOffset": 3145536,
      "componentType": 5126,
      "count": 22328,
      "max": [
        0.6427755951881409,
        1.5289206504821777,
        0.8164652585983276
      ],
      "min": [
        -0.6415421366691589,
        0.42685338854789734,
        0.5374050140380859
      ],
      "type": "VEC3"
    },
    {
      "bufferView": 2,
      "byteOffset": 3413472,
      "componentType": 5126,
      "count": 22328,
      "max": [
        0.9999692440032959,
        0.9999497532844543,
        0.9999808669090271
      ],
      "min": [
        -0.9999691843986511,
        -0.9998984336853027,
        -0.9997718930244446
      ],
      "type": "VEC3"
    },
    {
      "bufferView": 1,
      "byteOffset": 3145536,
      "componentType": 5126,
      "count": 22328,
      "max": [
        0.9162012338638306,
        0.901238203048706
      ],
      "min": [
        0.004706859588623047,
        0.008631110191345215
      ],
      "type": "VEC2"
    },
    {
      "bufferView": 1,
      "byteOffset": 3324160,
      "componentType": 5126,
      "count": 22328,
      "max": [
        0.9162012338638306,
        0.901238203048706
      ],
      "min": [
        0.004706859588623047,
        0.008631110191345215
      ],
      "type": "VEC2"
    },
    {
      "bufferView": 1,
      "byteOffset": 3502784,
      "componentType": 5126,
      "count": 22328,
      "max": [
        0.9162012338638306,
        0.901238203048706
      ],
      "min": [
        0.004706859588623047,
        0.008631110191345215
      ],
      "type": "VEC2"
    },
    {
      "bufferView": 0,
      "byteOffset": 2916708,
      "componentType": 5125,
      "count": 121677,
      "type": "SCALAR"
    }
  ],
  "asset": {
    "extras": {
      "author": "sparemilk (https://sketchfab.com/sparemilk)",
      "license": "CC-BY-4.0 (http://creativecommons.org/licenses/by/4.0/)",
      "source": "https://sketchfab.com/3d-models/nerd-emoji-3d-541a73eb323a49e0b3a868c475a8d7d4",
      "title": "Nerd Emoji 3D"
    },
    "generator": "Sketchfab-13.74.0",
    "version": "2.0"
  },
  "bufferViews": [
    {
      "buffer": 0,
      "byteLength": 3403416,
      "name": "floatBufferViews",
      "target": 34963
    },
    {
      "buffer": 0,
      "byteLength": 3681408,
      "byteOffset": 3403416,
      "byteStride": 8,
      "name": "floatBufferViews",
      "target": 34962
    },
    {
      "buffer": 0,
      "byteLength": 3681408,
      "byteOffset": 7084824,
      "byteStride": 12,
      "name": "floatBufferViews",
      "target": 34962
    }
  ],
  "buffers": [
    {
      "byteLength": 10766232,
      "uri": "scene.bin"
    }
  ],
  "extensionsUsed": [
    "KHR_materials_unlit"
  ],
  "images": [
    {
      "uri": "textures/Material_baseColor.png"
    }
  ],
  "materials": [
    {
      "doubleSided": true,
      "extensions": {
        "KHR_materials_unlit": {}
      },
      "name": "Material",
      "pbrMetallicRoughness": {
        "baseColorTexture": {
          "index": 0
        },
        "metallicFactor": 0.0
      }
    }
  ],
  "meshes": [
    {
      "name": "Object_0",
      "primitives": [
        {
          "attributes": {
            "NORMAL": 1,
            "POSITION": 0,
            "TEXCOORD_0": 2,
            "TEXCOORD_1": 3,
            "TEXCOORD_2": 4
          },
          "indices": 5,
          "material": 0,
          "mode": 4
        }
      ]
    },
    {
      "name": "Object_1",
      "primitives": [
        {
          "attributes": {
            "NORMAL": 7,
            "POSITION": 6,
            "TEXCOORD_0": 8,
            "TEXCOORD_1": 9,
            "TEXCOORD_2": 10
          },
          "indices": 11,
          "material": 0,
          "mode": 4
        }
      ]
    },
    {
      "name": "Object_2",
      "primitives": [
        {
          "attributes": {
            "NORMAL": 13,
            "POSITION": 12,
            "TEXCOORD_0": 14,
            "TEXCOORD_1": 15,
            "TEXCOORD_2": 16
          },
          "indices": 17,
          "material": 0,
          "mode": 4
        }
      ]
    }
  ],
  "nodes": [
    {
      "children": [
        1
      ],
      "matrix": [
        1.0,
        0.0,
        0.0,
        0.0,
        0.0,
        2.220446049250313e-16,
        -1.0,
        0.0,
        0.0,
        1.0,
        2.220446049250313e-16,
        0.0,
        0.0,
        0.0,
        0.0,
        1.0
      ],
      "name": "Sketchfab_model"
    },
    {
      "children": [
        2
      ],
      "name": "root"
    },
    {
      "children": [
        3
      ],
      "matrix": [
        1.0,
        0.0,
        0.0,
        0.0,
        0.0,
        2.220446049250313e-16,
        1.0,
        0.0,
        0.0,
        -1.0,
        2.220446049250313e-16,
        0.0,
        0.0,
        0.0,
        0.0,
        1.0
      ],
      "name": "GLTF_SceneRootNode"
    },
    {
      "children": [
        4,
        5,
        6
      ],
      "matrix": [
        0.48460036516189575,
        0.0,
        0.0,
        0.0,
        0.0,
        0.48460036516189575,
        0.0,
        0.0,
        0.0,
        0.0,
        0.48460036516189575,
        0.0,
        0.0,
        0.0,
        0.0,
        1.0
      ],
      "name": "Body_0"
    },
    {
      "mesh": 0,
      "name": "Object_4"
    },
    {
      "mesh": 1,
      "name": "Object_5"
    },
    {
      "mesh": 2,
      "name": "Object_6"
    }
  ],
  "samplers": [
    {
      "magFilter": 9729,
      "minFilter": 9987,
      "wrapS": 10497,
      "wrapT": 10497
    }
  ],
  "scene": 0,
  "scenes": [
    {
      "name": "Sketchfab_Scene",
      "nodes": [
        0
      ]
    }
  ],
  "textures": [
    {
      "sampler": 0,
      "source": 0
    }
  ]
}
